<svg xmlns="http://www.w3.org/2000/svg" viewBox="0 0 160 40" fill="none">
  <g transform="translate(4, 4)">
    <rect width="32" height="32" rx="8" fill="#054F31"/>
    <!-- Seed / Sprout Intelligence Leaf Node -->
    <path d="M16 6C16 6 8 13 8 20C8 24.4183 11.5817 28 16 28C20.4183 28 24 24.4183 24 20C24 13 16 6 16 6Z" fill="#10B981" fill-opacity="0.2"/>
    <path d="M16 8C16 8 10 14 10 19.5C10 22.8 12.7 25.5 16 25.5C19.3 25.5 22 22.8 22 19.5C22 14 16 8 16 8Z" fill="#10B981"/>
    <path d="M16 11V23M16 17L12 14M16 19L20 16" stroke="#FFFFFF" stroke-width="1.8" stroke-linecap="round" stroke-linejoin="round"/>
    <!-- Precision AI orbit node -->
    <circle cx="24" cy="8" r="3" fill="#84CC16"/>
  </g>
  <text x="44" y="26" font-family="Plus Jakarta Sans, system-ui, -apple-system, sans-serif" font-size="20" font-weight="800" letter-spacing="1.5" fill="#0F172A">NABTA</text>
  <text x="120" y="19" font-family="Plus Jakarta Sans, system-ui, -apple-system, sans-serif" font-size="8" font-weight="700" letter-spacing="0.8" fill="#054F31" text-transform="uppercase">AI</text>
</svg>